<svg width="900" height="820" viewBox="0 0 900 820" xmlns="http://www.w3.org/2000/svg" font-family="monospace, sans-serif">

  <!-- Background -->
  <rect width="900" height="820" fill="#0d1117" rx="12"/>

  <!-- Title bar -->
  <rect x="30" y="18" width="840" height="38" rx="8" fill="#161b22" stroke="#30363d" stroke-width="1"/>
  <text x="450" y="41" text-anchor="middle" fill="#00d9a3" font-size="15" font-weight="bold" letter-spacing="2">⚙  DEVOPS PIPELINE · END-TO-END FLOW</text>

  <!-- ══ STAGE LABELS (left spine) ══ -->
  <line x1="60" y1="70" x2="60" y2="790" stroke="#21262d" stroke-width="1" stroke-dasharray="4 4"/>

  <text x="48" y="145" text-anchor="middle" fill="#444d56" font-size="10" font-weight="bold" transform="rotate(-90,48,145)">CODE</text>
  <text x="48" y="255" text-anchor="middle" fill="#444d56" font-size="10" font-weight="bold" transform="rotate(-90,48,255)">BUILD</text>
  <text x="48" y="375" text-anchor="middle" fill="#444d56" font-size="10" font-weight="bold" transform="rotate(-90,48,375)">SECURE</text>
  <text x="48" y="495" text-anchor="middle" fill="#444d56" font-size="10" font-weight="bold" transform="rotate(-90,48,495)">DEPLOY</text>
  <text x="48" y="615" text-anchor="middle" fill="#444d56" font-size="10" font-weight="bold" transform="rotate(-90,48,615)">MONITOR</text>
  <text x="48" y="735" text-anchor="middle" fill="#444d56" font-size="10" font-weight="bold" transform="rotate(-90,48,735)">INFRA</text>

  <!-- ══ ROW 1: CODE ══ -->
  <!-- Developer -->
  <rect x="78" y="108" width="140" height="54" rx="7" fill="#161b22" stroke="#30363d" stroke-width="1"/>
  <text x="148" y="129" text-anchor="middle" fill="#c9d1d9" font-size="12" font-weight="bold">Developer</text>
  <text x="148" y="148" text-anchor="middle" fill="#6e7681" font-size="10">Local commit</text>

  <!-- arrow + label -->
  <line x1="218" y1="135" x2="268" y2="135" stroke="#00d9a3" stroke-width="1.5" marker-end="url(#arr-green)"/>
  <text x="243" y="127" text-anchor="middle" fill="#00d9a3" font-size="9">git push</text>

  <!-- GitHub Repo -->
  <rect x="268" y="108" width="160" height="54" rx="7" fill="#161b22" stroke="#30363d" stroke-width="1"/>
  <text x="348" y="129" text-anchor="middle" fill="#c9d1d9" font-size="12" font-weight="bold">GitHub Repo</text>
  <text x="348" y="148" text-anchor="middle" fill="#6e7681" font-size="10">PR + code review</text>

  <!-- arrow -->
  <line x1="428" y1="135" x2="478" y2="135" stroke="#00d9a3" stroke-width="1.5" marker-end="url(#arr-green)"/>
  <text x="453" y="127" text-anchor="middle" fill="#00d9a3" font-size="9">trigger</text>

  <!-- GitHub Actions -->
  <rect x="478" y="108" width="175" height="54" rx="7" fill="#0d2137" stroke="#378ADD" stroke-width="1.2"/>
  <text x="565" y="129" text-anchor="middle" fill="#85B7EB" font-size="12" font-weight="bold">GitHub Actions</text>
  <text x="565" y="148" text-anchor="middle" fill="#4d8cc4" font-size="10">Webhook event fired</text>

  <!-- Jenkins (alternative) -->
  <rect x="668" y="108" width="130" height="54" rx="7" fill="#1a1208" stroke="#D24939" stroke-width="1"/>
  <text x="733" y="129" text-anchor="middle" fill="#e07060" font-size="12" font-weight="bold">Jenkins</text>
  <text x="733" y="148" text-anchor="middle" fill="#7a3828" font-size="10">Alt CI runner</text>

  <!-- down arrow code→build -->
  <line x1="565" y1="162" x2="565" y2="210" stroke="#378ADD" stroke-width="1.5" marker-end="url(#arr-blue)"/>

  <!-- ══ ROW 2: BUILD ══ -->
  <!-- subgraph bg -->
  <rect x="78" y="210" width="720" height="74" rx="8" fill="#0a1520" stroke="#378ADD" stroke-width="1" stroke-dasharray="5 3"/>
  <text x="90" y="225" fill="#378ADD" font-size="9" font-weight="bold">BUILD</text>

  <!-- Unit Tests -->
  <rect x="88" y="228" width="155" height="46" rx="6" fill="#0d2137" stroke="#378ADD" stroke-width="1"/>
  <text x="165" y="247" text-anchor="middle" fill="#85B7EB" font-size="11" font-weight="bold">Unit Tests</text>
  <text x="165" y="263" text-anchor="middle" fill="#4d8cc4" font-size="10">pytest / Jest</text>

  <!-- arrow -->
  <line x1="243" y1="251" x2="278" y2="251" stroke="#378ADD" stroke-width="1.5" marker-end="url(#arr-blue)"/>

  <!-- Docker Build -->
  <rect x="278" y="228" width="165" height="46" rx="6" fill="#0d2137" stroke="#378ADD" stroke-width="1"/>
  <text x="360" y="247" text-anchor="middle" fill="#85B7EB" font-size="11" font-weight="bold">Docker Build</text>
  <text x="360" y="263" text-anchor="middle" fill="#4d8cc4" font-size="10">Image + layer cache</text>

  <!-- arrow -->
  <line x1="443" y1="251" x2="478" y2="251" stroke="#378ADD" stroke-width="1.5" marker-end="url(#arr-blue)"/>

  <!-- Container Registry -->
  <rect x="478" y="228" width="175" height="46" rx="6" fill="#0d2137" stroke="#378ADD" stroke-width="1"/>
  <text x="565" y="247" text-anchor="middle" fill="#85B7EB" font-size="11" font-weight="bold">Container Registry</text>
  <text x="565" y="263" text-anchor="middle" fill="#4d8cc4" font-size="10">ECR / ACR / GHCR</text>

  <!-- arrow -->
  <line x1="653" y1="251" x2="688" y2="251" stroke="#378ADD" stroke-width="1.5" marker-end="url(#arr-blue)"/>

  <!-- Artifact Store -->
  <rect x="688" y="228" width="102" height="46" rx="6" fill="#0d2137" stroke="#378ADD" stroke-width="1"/>
  <text x="739" y="247" text-anchor="middle" fill="#85B7EB" font-size="11" font-weight="bold">Artifacts</text>
  <text x="739" y="263" text-anchor="middle" fill="#4d8cc4" font-size="10">Versioned tags</text>

  <!-- down arrow build→security -->
  <line x1="565" y1="284" x2="565" y2="330" stroke="#7F77DD" stroke-width="1.5" marker-end="url(#arr-purple)"/>

  <!-- ══ ROW 3: SECURITY ══ -->
  <rect x="78" y="330" width="720" height="74" rx="8" fill="#100a1e" stroke="#7F77DD" stroke-width="1" stroke-dasharray="5 3"/>
  <text x="90" y="345" fill="#7F77DD" font-size="9" font-weight="bold">SHIFT-LEFT SECURITY</text>

  <!-- SonarQube -->
  <rect x="88" y="348" width="152" height="46" rx="6" fill="#1a1030" stroke="#7F77DD" stroke-width="1"/>
  <text x="164" y="367" text-anchor="middle" fill="#AFA9EC" font-size="11" font-weight="bold">SonarQube</text>
  <text x="164" y="383" text-anchor="middle" fill="#6b63b5" font-size="10">SAST code scan</text>

  <line x1="240" y1="371" x2="268" y2="371" stroke="#7F77DD" stroke-width="1.5" marker-end="url(#arr-purple)"/>

  <!-- Snyk -->
  <rect x="268" y="348" width="130" height="46" rx="6" fill="#1a1030" stroke="#7F77DD" stroke-width="1"/>
  <text x="333" y="367" text-anchor="middle" fill="#AFA9EC" font-size="11" font-weight="bold">Snyk</text>
  <text x="333" y="383" text-anchor="middle" fill="#6b63b5" font-size="10">Dependency CVEs</text>

  <line x1="398" y1="371" x2="428" y2="371" stroke="#7F77DD" stroke-width="1.5" marker-end="url(#arr-purple)"/>

  <!-- Trivy -->
  <rect x="428" y="348" width="130" height="46" rx="6" fill="#1a1030" stroke="#7F77DD" stroke-width="1"/>
  <text x="493" y="367" text-anchor="middle" fill="#AFA9EC" font-size="11" font-weight="bold">Trivy</text>
  <text x="493" y="383" text-anchor="middle" fill="#6b63b5" font-size="10">Image vuln scan</text>

  <line x1="558" y1="371" x2="588" y2="371" stroke="#7F77DD" stroke-width="1.5" marker-end="url(#arr-purple)"/>

  <!-- Gitleaks -->
  <rect x="588" y="348" width="130" height="46" rx="6" fill="#1a1030" stroke="#7F77DD" stroke-width="1"/>
  <text x="653" y="367" text-anchor="middle" fill="#AFA9EC" font-size="11" font-weight="bold">Gitleaks</text>
  <text x="653" y="383" text-anchor="middle" fill="#6b63b5" font-size="10">Secret detection</text>

  <!-- down arrow security→deploy -->
  <line x1="565" y1="404" x2="565" y2="450" stroke="#D85A30" stroke-width="1.5" marker-end="url(#arr-coral)"/>

  <!-- ══ ROW 4: DEPLOY ══ -->
  <rect x="78" y="450" width="720" height="74" rx="8" fill="#160a04" stroke="#D85A30" stroke-width="1" stroke-dasharray="5 3"/>
  <text x="90" y="465" fill="#D85A30" font-size="9" font-weight="bold">DEPLOY</text>

  <!-- ArgoCD -->
  <rect x="88" y="468" width="140" height="46" rx="6" fill="#1f0d08" stroke="#D85A30" stroke-width="1"/>
  <text x="158" y="487" text-anchor="middle" fill="#F0997B" font-size="11" font-weight="bold">ArgoCD</text>
  <text x="158" y="503" text-anchor="middle" fill="#8a3d1a" font-size="10">GitOps sync</text>

  <line x1="228" y1="491" x2="258" y2="491" stroke="#D85A30" stroke-width="1.5" marker-end="url(#arr-coral)"/>

  <!-- Helm -->
  <rect x="258" y="468" width="130" height="46" rx="6" fill="#1f0d08" stroke="#D85A30" stroke-width="1"/>
  <text x="323" y="487" text-anchor="middle" fill="#F0997B" font-size="11" font-weight="bold">Helm</text>
  <text x="323" y="503" text-anchor="middle" fill="#8a3d1a" font-size="10">K8s templating</text>

  <line x1="388" y1="491" x2="418" y2="491" stroke="#D85A30" stroke-width="1.5" marker-end="url(#arr-coral)"/>

  <!-- EKS/AKS -->
  <rect x="418" y="468" width="140" height="46" rx="6" fill="#1f0d08" stroke="#D85A30" stroke-width="1"/>
  <text x="488" y="487" text-anchor="middle" fill="#F0997B" font-size="11" font-weight="bold">EKS / AKS</text>
  <text x="488" y="503" text-anchor="middle" fill="#8a3d1a" font-size="10">Kubernetes cluster</text>

  <line x1="558" y1="491" x2="588" y2="491" stroke="#D85A30" stroke-width="1.5" marker-end="url(#arr-coral)"/>

  <!-- Multi-env -->
  <rect x="588" y="468" width="200" height="46" rx="6" fill="#1f0d08" stroke="#D85A30" stroke-width="1"/>
  <text x="688" y="487" text-anchor="middle" fill="#F0997B" font-size="11" font-weight="bold">Multi-env</text>
  <text x="688" y="503" text-anchor="middle" fill="#8a3d1a" font-size="10">Dev → Stage → Production</text>

  <!-- down arrow deploy→monitor -->
  <line x1="450" y1="524" x2="450" y2="570" stroke="#EF9F27" stroke-width="1.5" marker-end="url(#arr-amber)"/>

  <!-- ══ ROW 5: MONITOR ══ -->
  <rect x="78" y="570" width="720" height="74" rx="8" fill="#140f00" stroke="#EF9F27" stroke-width="1" stroke-dasharray="5 3"/>
  <text x="90" y="585" fill="#EF9F27" font-size="9" font-weight="bold">OBSERVE</text>

  <!-- Prometheus -->
  <rect x="88" y="588" width="155" height="46" rx="6" fill="#1f1500" stroke="#EF9F27" stroke-width="1"/>
  <text x="165" y="607" text-anchor="middle" fill="#FAC775" font-size="11" font-weight="bold">Prometheus</text>
  <text x="165" y="623" text-anchor="middle" fill="#8a5c0a" font-size="10">Metrics scraping</text>

  <line x1="243" y1="611" x2="278" y2="611" stroke="#EF9F27" stroke-width="1.5" marker-end="url(#arr-amber)"/>

  <!-- Grafana -->
  <rect x="278" y="588" width="140" height="46" rx="6" fill="#1f1500" stroke="#EF9F27" stroke-width="1"/>
  <text x="348" y="607" text-anchor="middle" fill="#FAC775" font-size="11" font-weight="bold">Grafana</text>
  <text x="348" y="623" text-anchor="middle" fill="#8a5c0a" font-size="10">Dashboards</text>

  <line x1="418" y1="611" x2="453" y2="611" stroke="#EF9F27" stroke-width="1.5" marker-end="url(#arr-amber)"/>

  <!-- ELK -->
  <rect x="453" y="588" width="140" height="46" rx="6" fill="#1f1500" stroke="#EF9F27" stroke-width="1"/>
  <text x="523" y="607" text-anchor="middle" fill="#FAC775" font-size="11" font-weight="bold">ELK Stack</text>
  <text x="523" y="623" text-anchor="middle" fill="#8a5c0a" font-size="10">Log aggregation</text>

  <line x1="593" y1="611" x2="628" y2="611" stroke="#EF9F27" stroke-width="1.5" marker-end="url(#arr-amber)"/>

  <!-- Alerting -->
  <rect x="628" y="588" width="162" height="46" rx="6" fill="#1f1500" stroke="#EF9F27" stroke-width="1"/>
  <text x="709" y="607" text-anchor="middle" fill="#FAC775" font-size="11" font-weight="bold">Alerting</text>
  <text x="709" y="623" text-anchor="middle" fill="#8a5c0a" font-size="10">PagerDuty / Slack</text>

  <!-- down arrow monitor→infra -->
  <line x1="250" y1="644" x2="250" y2="690" stroke="#639922" stroke-width="1.5" marker-end="url(#arr-green2)"/>

  <!-- ══ ROW 6: INFRA ══ -->
  <rect x="78" y="690" width="720" height="74" rx="8" fill="#081208" stroke="#639922" stroke-width="1" stroke-dasharray="5 3"/>
  <text x="90" y="705" fill="#639922" font-size="9" font-weight="bold">INFRA AS CODE</text>

  <!-- Terraform -->
  <rect x="88" y="708" width="155" height="46" rx="6" fill="#0a1a08" stroke="#639922" stroke-width="1"/>
  <text x="165" y="727" text-anchor="middle" fill="#97C459" font-size="11" font-weight="bold">Terraform</text>
  <text x="165" y="743" text-anchor="middle" fill="#3B6D11" font-size="10">IaC provisioning</text>

  <line x1="243" y1="731" x2="278" y2="731" stroke="#639922" stroke-width="1.5" marker-end="url(#arr-green2)"/>

  <!-- Ansible -->
  <rect x="278" y="708" width="140" height="46" rx="6" fill="#0a1a08" stroke="#639922" stroke-width="1"/>
  <text x="348" y="727" text-anchor="middle" fill="#97C459" font-size="11" font-weight="bold">Ansible</text>
  <text x="348" y="743" text-anchor="middle" fill="#3B6D11" font-size="10">Config mgmt</text>

  <line x1="418" y1="731" x2="453" y2="731" stroke="#639922" stroke-width="1.5" marker-end="url(#arr-green2)"/>

  <!-- Multi-cloud -->
  <rect x="453" y="708" width="335" height="46" rx="6" fill="#0a1a08" stroke="#639922" stroke-width="1"/>
  <text x="620" y="727" text-anchor="middle" fill="#97C459" font-size="11" font-weight="bold">Multi-cloud</text>
  <text x="620" y="743" text-anchor="middle" fill="#3B6D11" font-size="10">AWS · Azure · OCI</text>

  <!-- ══ FEEDBACK LOOPS ══ -->
  <!-- MTTR loop: Alert → ArgoCD (right side curved) -->
  <path d="M798 611 C855 611 855 491 798 491" fill="none" stroke="#EF9F27" stroke-width="1" stroke-dasharray="5 3" marker-end="url(#arr-amber)"/>
  <text x="862" y="548" text-anchor="middle" fill="#8a5c0a" font-size="9">MTTR</text>
  <text x="862" y="560" text-anchor="middle" fill="#8a5c0a" font-size="9">loop</text>

  <!-- GitOps watch: ArgoCD → GitHub (left side curved) -->
  <path d="M88 491 C30 491 30 135 88 135" fill="none" stroke="#D85A30" stroke-width="1" stroke-dasharray="5 3" marker-end="url(#arr-coral)"/>
  <text x="20" y="308" text-anchor="middle" fill="#8a3d1a" font-size="9" transform="rotate(-90,20,308)">GitOps watch</text>

  <!-- ══ LEGEND ══ -->
  <rect x="78" y="778" width="720" height="28" rx="6" fill="#161b22" stroke="#21262d" stroke-width="1"/>
  <rect x="92" y="787" width="10" height="10" rx="2" fill="#0d2137" stroke="#378ADD" stroke-width="1"/>
  <text x="108" y="797" fill="#378ADD" font-size="10">Build</text>
  <rect x="160" y="787" width="10" height="10" rx="2" fill="#1a1030" stroke="#7F77DD" stroke-width="1"/>
  <text x="176" y="797" fill="#7F77DD" font-size="10">Security</text>
  <rect x="240" y="787" width="10" height="10" rx="2" fill="#1f0d08" stroke="#D85A30" stroke-width="1"/>
  <text x="256" y="797" fill="#D85A30" font-size="10">Deploy</text>
  <rect x="310" y="787" width="10" height="10" rx="2" fill="#1f1500" stroke="#EF9F27" stroke-width="1"/>
  <text x="326" y="797" fill="#EF9F27" font-size="10">Monitor</text>
  <rect x="390" y="787" width="10" height="10" rx="2" fill="#0a1a08" stroke="#639922" stroke-width="1"/>
  <text x="406" y="797" fill="#639922" font-size="10">Infra</text>
  <line x1="450" y1="792" x2="478" y2="792" stroke="#6e7681" stroke-width="1" stroke-dasharray="4 3"/>
  <text x="484" y="797" fill="#6e7681" font-size="10">Feedback loop</text>
  <text x="680" y="797" fill="#21262d" font-size="10">trivediayush · DevOps Pipeline</text>

  <!-- ══ ARROW MARKERS ══ -->
  <defs>
    <marker id="arr-green" viewBox="0 0 10 10" refX="8" refY="5" markerWidth="6" markerHeight="6" orient="auto">
      <path d="M2 1L8 5L2 9" fill="none" stroke="#00d9a3" stroke-width="1.5" stroke-linecap="round"/>
    </marker>
    <marker id="arr-blue" viewBox="0 0 10 10" refX="8" refY="5" markerWidth="6" markerHeight="6" orient="auto">
      <path d="M2 1L8 5L2 9" fill="none" stroke="#378ADD" stroke-width="1.5" stroke-linecap="round"/>
    </marker>
    <marker id="arr-purple" viewBox="0 0 10 10" refX="8" refY="5" markerWidth="6" markerHeight="6" orient="auto">
      <path d="M2 1L8 5L2 9" fill="none" stroke="#7F77DD" stroke-width="1.5" stroke-linecap="round"/>
    </marker>
    <marker id="arr-coral" viewBox="0 0 10 10" refX="8" refY="5" markerWidth="6" markerHeight="6" orient="auto">
      <path d="M2 1L8 5L2 9" fill="none" stroke="#D85A30" stroke-width="1.5" stroke-linecap="round"/>
    </marker>
    <marker id="arr-amber" viewBox="0 0 10 10" refX="8" refY="5" markerWidth="6" markerHeight="6" orient="auto">
      <path d="M2 1L8 5L2 9" fill="none" stroke="#EF9F27" stroke-width="1.5" stroke-linecap="round"/>
    </marker>
    <marker id="arr-green2" viewBox="0 0 10 10" refX="8" refY="5" markerWidth="6" markerHeight="6" orient="auto">
      <path d="M2 1L8 5L2 9" fill="none" stroke="#639922" stroke-width="1.5" stroke-linecap="round"/>
    </marker>
  </defs>

</svg>
